<?xml version="1.0" standalone="no"?>
<!DOCTYPE svg PUBLIC "-//W3C//DTD SVG 1.1//EN" "http://www.w3.org/Graphics/SVG/1.1/DTD/svg11.dtd" >
<!--
2013-9-30: Created.
-->
<svg>
<metadata>
Created by iconfont
</metadata>
<defs>

<font id="iconfont" horiz-adv-x="1024" >
  <font-face
    font-family="iconfont"
    font-weight="500"
    font-stretch="normal"
    units-per-em="1024"
    ascent="896"
    descent="-128"
  />
    <missing-glyph />
    
    <glyph glyph-name="x" unicode="x" horiz-adv-x="1001"
d="M281 543q-27 -1 -53 -1h-83q-18 0 -36.5 -6t-32.5 -18.5t-23 -32t-9 -45.5v-76h912v41q0 16 -0.5 30t-0.5 18q0 13 -5 29t-17 29.5t-31.5 22.5t-49.5 9h-133v-97h-438v97zM955 310v-52q0 -23 0.5 -52t0.5 -58t-10.5 -47.5t-26 -30t-33 -16t-31.5 -4.5q-14 -1 -29.5 -0.5
t-29.5 0.5h-32l-45 128h-439l-44 -128h-29h-34q-20 0 -45 1q-25 0 -41 9.5t-25.5 23t-13.5 29.5t-4 30v167h911zM163 247q-12 0 -21 -8.5t-9 -21.5t9 -21.5t21 -8.5q13 0 22 8.5t9 21.5t-9 21.5t-22 8.5zM316 123q-8 -26 -14 -48q-5 -19 -10.5 -37t-7.5 -25t-3 -15t1 -14.5
t9.5 -10.5t21.5 -4h37h67h81h80h64h36q23 0 34 12t2 38q-5 13 -9.5 30.5t-9.5 34.5q-5 19 -11 39h-368zM336 498v228q0 11 2.5 23t10 21.5t20.5 15.5t34 6h188q31 0 51.5 -14.5t20.5 -52.5v-227h-327z" />
    

    
    <glyph glyph-name="wechatpayment" unicode="&#59062;" d="M870.023116 831.75172H153.627936c-49.466622 0-89.553619-40.096207-89.553618-89.534175v-716.423833c0-49.451272 40.086997-89.545432 89.553618-89.545432h716.39518c49.465598 0 89.560782 40.09416 89.560782 89.545432V742.217545c0 49.437969-40.095183 89.534176-89.560782 89.534175z m-358.198101-708.502419c-40.938388 0-80.000032 6.982018-115.836215 19.545148-22.800285-15.20326-61.09752-40.173978-76.121702-47.119157-22.036899-10.227945-15.714913 11.79872-15.714913 11.798721l13.07069 75.478042C244.852614 233.50235699999996 198.374046 311.49773300000004 198.374046 399.151072c0 152.383596 140.324956 275.91405 313.428456 275.91405 106.073874 0 199.768813-46.422286 256.473279-117.40085L460.879716 414.952966s-25.046443-9.509585-47.013757 3.929496c-21.991874 13.425777-50.945299 35.464723-50.945299 35.464723s-33.744545 28.79379-15.654538-23.648607l47.015803-110.37483s5.574972-32.853245 43.092447-11.816116c29.354562 16.424064 257.164011 154.195871 355.10874 213.471906 20.948101-37.010939 32.770358-78.672804 32.770358-122.82642-0.001023-152.3662-140.349515-275.903817-313.428455-275.903817z"  horiz-adv-x="1024" />

    
    <glyph glyph-name="payAlipay" unicode="&#59063;" d="M229.714845 299.90162699999996c-68.892043-58.677401-27.676339-165.942403 111.669313-165.942403 81.025385 0 161.970952 50.610678 225.563292 131.635039-90.435709 43.131333-167.100786 73.977875-249.871931 66.00325-22.37766-2.209318-64.380286-11.868305-87.360674-31.695886z m730.948641-66.497507V717.942675c0 79.277578-33.225729 112.564705-112.48898 112.564705H177.557952c-79.277578 0-112.549356-33.287127-112.549356-112.564705v-670.555156c0-79.231529 33.271778-112.518656 112.549356-112.518656h670.616554c79.263252 0 112.48898 33.287127 112.48898 112.518656v36.733623s-228.26789 92.75452-344.728322 149.284001c-78.087473-97.033987-190.916191-149.284001-295.491945-149.284001-171.428348 0-222.719524 172.866093-147.707086 248.805646 20.444635 20.676925 50.254567 37.738509 98.486058 49.776683C346.620415 401.402345 478.843856 370.44733299999996 591.317487 332.926788c20.228717 37.676088 36.548404 80.236416 49.234331 124.386961H264.052908v49.761334h199.028962v49.776684H239.156892v49.761333h223.924978v74.625628s0.047072 24.880667 24.880667 24.880667h74.657351l0.509606-100.341313 223.384673 0.850368v-49.761334h-223.909629v-49.776683h174.163645c-16.890692-69.201082-39.71656-143.102209-71.566965-199.028963 53.022611-19.378349 103.402021-27.925003 138.867767-39.932477h-0.015349c127.649262-43.208081 156.609851-34.724873 156.60985-34.724873z"  horiz-adv-x="1024" />

    
    <glyph glyph-name="Balancepayments" unicode="&#59079;" d="M846.268086 769.462049H179.821505c-28.312836 0-51.264571-22.952758-51.264571-51.264571v-666.445558c0-28.312836 22.951735-51.264571 51.264571-51.26457H846.268086c28.312836 0 51.265594 22.951735 51.265594 51.26457V718.197478c-0.001023 28.311813-22.952758 51.264571-51.265594 51.264571z m-402.816298-147.386792h134.693701c21.818935 0 23.108301-25.870204 8.43716-49.01432-10.80509-17.044188-27.738761-27.883047-40.151465-27.883048h-72.115458c-12.08013 0-28.560476 10.838859-39.075971 27.883048-14.277168 23.144116-13.023618 49.01432 8.212033 49.01432z m74.147744-480.536404c-1.521656 0.023536-3.035126 0.098237-4.554736 0.140193-1.517563-0.041956-3.03001-0.116657-4.550643-0.140193-115.572202 5.27105-223.085868 44.994774-212.473159 170.476672C311.703161 450.465784 414.156578 527.474692 513.044796 525.737118v0.201592c98.978269 1.737574 201.526853-75.311243 217.223346-213.834157 10.621918-125.547391-96.989985-165.292604-212.66861-170.5657z m49.473784 164.134221c-2.937912 2.00261-6.007831 2.26867-9.211802 0.801248-2.803859-1.201361-5.206582-3.339048-7.209192-6.407943-2.136663-3.204995-3.203972-6.54302-3.203972-10.013051-0.134053-3.339048 1.333368-6.006807 4.405333-8.010441 8.942673-5.741771 19.891026-14.950504 32.841989-27.635407 2.534729-2.534729 5.406127-3.535523 8.611122-3.004427 2.934842 0.535189 5.807263 2.136663 8.610098 4.806469 2.803859 2.537799 4.671393 5.541203 5.607718 9.011234 0.801249 2.937912-0.068562 5.807263-2.603291 8.611122-13.617136 13.749142-26.233478 24.362874-37.848003 31.841196z m38.047548 79.301114c-18.557658 6.940063-33.041534 14.018272-43.454698 21.227463-10.54824 7.340175-18.624173 14.017248-24.230867 20.025079-6.142907 6.538927-12.81691 9.877975-20.025079 10.012028-7.344269 0.132006-13.68672-2.937912-19.024286-9.211802-5.607718-6.141884-14.086833-13.016455-25.432229-20.62576-10.547217-6.943133-25.701358-14.017248-45.457308-21.22644-3.338025-1.336438-5.340635-3.605108-6.00783-6.80908-0.535189-3.338025-0.200568-6.808056 1.001817-10.413164 1.333368-3.339048 3.269463-5.942339 5.807262-7.809873 2.533706-2.00261 5.538133-2.402723 9.011235-1.201361 6.53995 2.534729 13.548574 5.737678 21.026895 9.611915v-1.802042c0-3.604084 0.86674-6.808056 2.603291-9.611915 1.601474-2.537799 4.136204-3.873214 7.609305-4.005221h36.246529v-13.416567h-66.684772c-3.604084 0-6.27696-1.336438-8.010441-4.005221-1.601474-2.403746-2.403746-5.40715-2.403746-9.012258 0-3.738138 0.86674-7.008624 2.603291-9.812483 1.601474-2.803859 4.205788-4.204765 7.809873-4.204765h66.684772v-37.848003c0-2.133593-0.801249-4.270257-2.402723-6.407943-1.336438-0.933255-3.273557-1.667989-5.807263-2.203179-2.537799 0.400113-5.14109 0.801249-7.809873 1.201362a95.684246 95.684246 0 0 0-7.209192 1.802042c-3.604084 0.535189-6.342452-0.400113-8.211009-2.803859-2.136663-2.534729-3.473101-5.672186-4.00522-9.411347-0.400113-3.604084 0-6.740518 1.201361-9.41237 1.332345-2.934842 3.736091-4.605901 7.209192-5.006014 6.940063-1.733481 12.681834-2.735297 17.222244-3.004427 4.53734-0.400113 9.543354-0.199545 15.019065 0.60068 5.206582 0.535189 9.476839 2.403746 12.815887 5.607718 2.803859 2.402723 5.072529 5.475711 6.809079 9.211803 1.332345 4.00522 2.068102 7.478322 2.202155 10.413164v47.260373h62.478983c3.334955 0 5.939269 1.401929 7.809873 4.204765 1.602498 2.403746 2.403746 5.40715 2.403746 9.012258 0 3.736091-0.86981 7.008624-2.603291 9.812483-1.602498 2.534729-4.139274 3.870144-7.609305 4.005221h-62.478983v13.416567h34.443464c3.334955 0 5.872754 1.332345 7.609304 4.005221 1.601474 2.402723 2.402723 5.337565 2.402723 8.810666 0 0.801249-0.068562 1.532913-0.200568 2.203178 6.53995-3.604084 12.681834-6.607488 18.423605-9.011234 3.335978-1.335415 6.339382-1.070378 9.011235 0.801249 2.803859 2.133593 4.871961 4.937452 6.207375 8.410553 1.333368 3.334955 1.733481 6.538927 1.201361 9.611915-0.533143 3.334955-2.470261 5.672186-5.806239 7.008625z m-127.96137-5.606695c10.54517 7.340175 18.755156 13.948687 24.63098 19.824511 6.007831 6.138814 11.214413 9.211802 15.619746 9.211802 4.536316 0 9.611915-2.937912 15.219633-8.811689 4.405333-4.806469 12.882402-11.549034 25.432229-20.225647h-80.902588z m9.011234-84.507696c-0.935302 2.934842-2.803859 5.607718-5.607718 8.010441-2.803859 2.534729-5.941316 4.136204-9.41237 4.806469-3.203972 0.531096-6.007831-0.535189-8.410554-3.203972-5.340635-5.607718-10.747785-10.613732-16.220426-15.019065a152.180981 152.180981 0 0 0-16.821108-10.212595c-3.339048-1.335415-5.340635-3.604084-6.00783-6.808057-0.535189-3.335978-0.068562-6.809079 1.401929-10.414187 1.332345-3.334955 3.269463-5.939269 5.807263-7.809873 2.534729-1.733481 5.538133-2.00261 9.011234-0.801248 5.738701 2.937912 12.281721 7.009647 19.624967 12.215206 6.940063 4.941546 15.019065 11.680017 24.230867 20.22667 2.534729 2.801812 3.335978 5.806239 2.403746 9.010211z"  horiz-adv-x="1024" />

    
    <glyph glyph-name="xingxing" unicode="&#59092;" d="M512 30.174968l-256.792774-141.130323a49.548387 49.548387 0 0 0-72.753549 51.447742L232.051613 242.787097 19.951484 458.917161a49.548387 49.548387 0 0 0 27.912258 83.687226l291.11329 44.213678 128.21471 271.574709a49.548387 49.548387 0 0 0 89.616516 0l128.21471-271.574709L976.103226 542.604387a49.548387 49.548387 0 0 0 27.912258-83.687226L791.948387 242.787097l49.597936-302.29471a49.548387 49.548387 0 0 0-72.753549-51.447742L512 30.174968z"  horiz-adv-x="1024" />

    
    <glyph glyph-name="dianpuxuanze" unicode="&#59102;" d="M560.608-78.784a64.096 64.096 0 0 0-97.216 0C240.128 180.928 128 376 128 511.136 128 723.68 299.904 896 512 896s384-172.32 384-384.864c0-135.104-112.128-330.208-335.392-589.92z m-52.384 378.24c118.976 0 215.424 96.64 215.424 215.84 0 119.232-96.448 215.904-215.424 215.904-118.976 0-215.424-96.672-215.424-215.904 0-119.2 96.448-215.872 215.424-215.872z"  horiz-adv-x="1024" />

    
    <glyph glyph-name="erweima" unicode="&#59103;" d="M38.393976 512h307.2a38.393976 38.393976 0 0 1 38.406024 38.393976v307.2A38.393976 38.393976 0 0 1 345.593976 896h-307.2A38.393976 38.393976 0 0 1 0 857.593976v-307.2a38.393976 38.393976 0 0 1 38.393976-38.393976z m51.2 294.393976h204.8v-204.8h-204.8v204.8z m38.406024-166.393976H256V768H128V640zM985.593976 896h-307.2a38.393976 38.393976 0 0 1-38.393976-38.393976v-307.2a38.393976 38.393976 0 0 1 38.393976-38.406024h307.2A38.393976 38.393976 0 0 1 1024 550.406024v307.2A38.393976 38.393976 0 0 1 985.593976 896z m-51.2-294.393976h-204.8v204.8h204.8v-204.8z m-38.393976 166.393976H768V640h128V768z m-550.406024-512h-307.2A38.406024 38.406024 0 0 1 0 217.593976v-307.2A38.393976 38.393976 0 0 1 38.393976-128h307.2a38.393976 38.393976 0 0 1 38.406024 38.393976v307.2a38.393976 38.393976 0 0 1-38.406024 38.406024z m-51.2-294.406024h-204.8v204.8h204.8v-204.8zM256 128H128v-128H256V128zM550.406024 896h-76.812048v-89.593976h76.812048V896zM0 473.593976V384h89.606024v89.593976H0zM1024-128v89.593976h-89.593976V-128H1024zM806.393976 128h-76.787952v-89.606024h-89.606024V-128h89.606024v89.593976h76.787952V-128h89.606024v89.593976h38.393976v76.8H1024V217.593976H806.393976v-89.593976zM819.2 38.393976h25.6v-76.8H819.2v76.8z m115.193976 435.2h-89.593976V384H768v-89.593976H1024V384h-89.593976v89.593976z m-383.987952 0V384H512v89.593976H166.393976V384H89.606024v-89.593976H256V384h89.593976v-89.593976h345.606024V384h76.8v89.593976H550.406024zM729.606024 128v89.593976H550.406024v-89.593976H460.8v-179.2h89.606024v89.593976h89.593976V128h89.606024zM550.406024 729.593976h-76.812048v-179.2h76.812048V729.593976z"  horiz-adv-x="1024" />

    
    <glyph glyph-name="jiaoyijiluicon" unicode="&#59104;" d="M312.622545 832H140.753455C101.562182 832 69.818182 799.255273 69.818182 758.853818v-813.707636C69.818182-95.255273 101.562182-128 140.753455-128h735.860363c39.168 0 70.912 32.744727 70.912 73.146182V758.853818c0 40.401455-31.744 73.146182-70.912 73.146182h-163.421091v-54.853818h163.421091c8.471273 0 16.058182-7.819636 16.058182-18.292364v-813.707636c0-10.472727-7.586909-18.292364-16.058182-18.292364H140.730182c-8.471273 0-16.058182 7.819636-16.058182 18.292364V758.853818c0 10.472727 7.586909 18.292364 16.058182 18.292364h171.892363V832zM254.882909 141.498182a27.438545 27.438545 0 1 0 0 54.853818h519.586909a27.438545 27.438545 0 0 0 0-54.877091H254.882909z m0 211.944727a27.438545 27.438545 0 0 0 0 54.853818h336.058182a27.438545 27.438545 0 1 0 0-54.853818H254.906182zM371.525818 841.146182a18.292364 18.292364 0 0 1-18.269091-18.292364V795.461818c0-10.100364 8.168727-18.292364 18.269091-18.292363H645.818182a18.292364 18.292364 0 0 1 18.292363 18.292363V822.853818a18.292364 18.292364 0 0 1-18.292363 18.292364H371.525818z m0 54.853818H645.818182a73.146182 73.146182 0 0 0 73.146182-73.146182V795.461818a73.146182 73.146182 0 0 0-73.146182-73.146182H371.525818a73.146182 73.146182 0 0 0-73.146182 73.146182V822.853818A73.146182 73.146182 0 0 0 371.525818 896z"  horiz-adv-x="1024" />

    
    <glyph glyph-name="jifenduihuan" unicode="&#59105;" d="M124.328585 425.234732v-479.431805c0-9.041171 7.342829-16.384 16.384-16.384h727.289756a16.408976 16.408976 0 0 1 16.384 16.384V425.234732H124.328585z m-49.201951 49.201951H933.588293v-528.633756a65.610927 65.610927 0 0 0-65.585952-65.610927H140.712585a65.610927 65.610927 0 0 0-65.585951 65.610927V474.436683zM49.201951 477.159024h910.311025v99.402927a16.408976 16.408976 0 0 1-16.408976 16.408976H65.610927a16.408976 16.408976 0 0 1-16.408976-16.408976v-99.402927z m16.408976 165.013854H943.079024a65.610927 65.610927 0 0 0 65.610927-65.610927v-140.412878a8.192 8.192 0 0 0-8.192-8.192H8.192A8.192 8.192 0 0 0 0 436.149073V576.561951a65.610927 65.610927 0 0 0 65.610927 65.610927zM280.151415 630.109659c-59.941463 34.59122-96.755512 95.132098-110.517074 179.324878a24.600976 24.600976 0 0 0 15.584781 26.998634c79.822049 30.195512 150.627902 28.572098 210.569366-6.019122 59.941463-34.616195 96.730537-95.132098 110.517073-179.349854a24.600976 24.600976 0 0 0-15.584781-26.973658c-79.822049-30.220488-150.652878-28.597073-210.569365 5.994146z m24.600975 42.60839c41.559415-24.001561 90.786341-27.398244 149.054439-9.340878-13.486829 59.491902-41.034927 100.401951-82.619317 124.428488-41.58439 23.976585-90.811317 27.398244-149.054439 9.340878 13.486829-59.491902 41.034927-100.401951 82.619317-124.428488zM730.886244 635.604293c-67.80878-39.13678-148.005463-40.96-238.716878-6.668488a24.600976 24.600976 0 0 0-15.584781 26.973658c15.659707 95.731512 57.344 164.264585 125.127805 203.426342 67.833756 39.13678 148.030439 40.96 238.741854 6.668488 10.939317-4.145951 17.482927-15.434927 15.559805-26.973659-15.634732-95.731512-57.319024-164.264585-125.127805-203.426341zM706.310244 678.212683c49.451707 28.572098 81.92 77.499317 97.354927 148.554927-69.23239 22.153366-127.875122 18.481951-177.32683-10.040195-49.451707-28.572098-81.92-77.499317-97.329951-148.529952 69.23239-22.178341 127.850146-18.531902 177.32683 10.01522z"  horiz-adv-x="1024" />

    
    <glyph glyph-name="huiyuandengji" unicode="&#59106;" d="M168.367114 477.507209a38.319148 38.319148 0 0 1-31.043361 7.599156 38.103569 38.103569 0 0 1-30.288834-44.597883l90.543134-468.34514a43.654725 43.654725 0 0 1 42.9002-35.301043h698.394763c20.749468 0 38.615569 14.551575 42.79241 34.762096l96.929659 469.638613a36.756201 36.756201 0 0 1-7.275788 30.369676 37.052622 37.052622 0 0 1-51.98146 5.874525l-79.791137-63.326299-2.586947-1.994105a96.336817 96.336817 0 0 0-134.467333 19.833258l-173.541007 232.986886a43.789462 43.789462 0 0 1-70.170928 0l-173.541007-232.986886a96.336817 96.336817 0 0 0-137.05428-17.839153l-79.818084 63.326299z m32.660202 40.879147l79.818084-63.326299c18.863153-14.982733 46.349461-11.883786 61.386089 6.925472l174.43027 234.17257a96.336817 96.336817 0 0 0 154.381433 0l173.541007-232.986886c14.362944-19.321258 41.741463-23.363362 61.116615-9.027366l80.976821 64.242509a89.599976 89.599976 0 0 0 125.655546-14.201259c16.491785-20.668626 22.959152-47.562093 17.623574-73.458507l-96.929658-469.611666a96.040396 96.040396 0 0 0-94.154081-76.503559H240.478253c-46.079988 0-85.665662 32.606307-94.36966 77.689243l-90.543134 468.34514a90.354503 90.354503 0 0 0 71.841665 105.79534 90.866502 90.866502 0 0 0 73.620192-18.054732zM96.148185 504.750991A95.986501 95.986501 0 0 0 0 600.575808a95.986501 95.986501 0 0 0 96.148185 95.79787 95.986501 95.986501 0 0 0 96.121238-95.79787 95.986501 95.986501 0 0 0-96.121238-95.824817z m0 47.912409a47.966303 47.966303 0 0 1 48.047145 47.912408 47.966303 47.966303 0 0 1-48.047145 47.912409 47.966303 47.966303 0 0 1-48.074092-47.912409 47.966303 47.966303 0 0 1 48.074092-47.912408zM592.841949 681.148419c-59.553669 0-107.789445 48.10104-107.789445 107.412182A107.600814 107.600814 0 0 0 592.841949 895.999731c59.553669 0 107.789445-48.10104 107.789446-107.43913a107.600814 107.600814 0 0 0-107.789446-107.412182z m0 53.706091c29.776834 0 53.894723 24.037046 53.894723 53.706091s-24.117888 53.733038-53.894723 53.733038-53.894723-24.063994-53.894722-53.733038c0-29.642097 24.117888-53.706091 53.894722-53.706091zM1089.535713 504.750991a95.986501 95.986501 0 0 0-96.121238 95.824817 95.986501 95.986501 0 0 0 96.121238 95.79787A95.986501 95.986501 0 0 0 1185.683899 600.575808a95.986501 95.986501 0 0 0-96.148186-95.824817z m0 47.912409a47.966303 47.966303 0 0 1 48.074093 47.912408 47.966303 47.966303 0 0 1-48.074093 47.912409 47.966303 47.966303 0 0 1-48.047145-47.912409 47.966303 47.966303 0 0 1 48.047145-47.912408z"  horiz-adv-x="1185" />

    
    <glyph glyph-name="suoding" unicode="&#59107;" d="M175.584653 470.183184a20.333714 20.333714 0 0 1-20.37551-20.271021v-248.414041c0-148.37551 120.93649-268.664163 270.147918-268.664163h173.285878c149.211429 0 270.147918 120.288653 270.147918 268.664163V449.891265a20.333714 20.333714 0 0 1-20.37551 20.271021H175.584653z m0 60.813061h672.830694c45.035102 0 81.543837-36.299755 81.543837-81.084082v-248.414041C929.959184 19.539592 781.625469-128 598.642939-128h-173.285878C242.374531-128 94.040816 19.539592 94.040816 201.498122V449.891265c0 44.805224 36.508735 81.125878 81.543837 81.125878zM433.340082 138.490776h-1.713633l14.54498 215.102693h-75.16996l-7.147102-300.972408h74.313143l232.176327 300.972408h-81.940898zM746.475102 561.423673v68.587103c0 111.866776-103.695673 205.155265-234.475102 205.155265-130.779429 0-234.475102-93.28849-234.475102-205.155265v-68.587103H216.377469v68.587103C216.377469 776.923429 348.724245 896 512 896c163.275755 0 295.622531-119.097469 295.622531-265.989224v-68.587103H746.475102z m61.147429 0H746.475102v68.587103c0 111.866776-103.695673 205.155265-234.475102 205.155265-130.779429 0-234.475102-93.28849-234.475102-205.155265v-68.587103H216.377469v68.587103C216.377469 776.923429 348.724245 896 512 896c163.275755 0 295.622531-119.097469 295.622531-265.989224v-68.587103z"  horiz-adv-x="1024" />

    
    <glyph glyph-name="shiyongshanghuicon" unicode="&#59108;" d="M562.269091-89.553455a63.790545 63.790545 0 0 0-96.768 0C243.293091 168.983273 131.723636 363.147636 131.723636 497.617455 131.700364 709.143273 302.778182 880.663273 513.861818 880.663273s382.208-171.52 382.208-383.069091c0-134.469818-111.616-328.634182-333.824-587.170909z m279.133091 587.17091c0 181.364364-146.641455 328.378182-327.517091 328.378181S186.368 678.981818 186.368 497.617455c0-117.108364 106.542545-302.475636 320.605091-551.517091a9.122909 9.122909 0 0 1 12.846545-0.977455c215.04 250.018909 321.582545 435.386182 321.582546 552.494546zM514.443636 272.523636c-118.411636 0-214.388364 96.232727-214.388363 214.877091 0 118.644364 95.976727 214.853818 214.388363 214.853818 118.434909 0 214.411636-96.209455 214.411637-214.853818 0-118.644364-95.976727-214.853818-214.411637-214.853818z m0 54.690909c88.203636 0 159.720727 71.703273 159.720728 160.186182s-71.517091 160.186182-159.720728 160.186182c-88.203636 0-159.720727-71.703273-159.720727-160.186182s71.517091-160.186182 159.720727-160.186182z"  horiz-adv-x="1024" />

    
    <glyph glyph-name="guanbi" unicode="&#59109;" d="M512 519.776L172.576 859.168a64 64 0 0 1-90.496 0L36.832 813.92a64 64 0 0 1 0-90.496L376.224 384 36.832 44.576a64 64 0 0 1 0-90.496l45.248-45.248a64 64 0 0 1 90.496 0L512 248.224l339.424-339.392a64 64 0 0 1 90.496 0l45.248 45.248a64 64 0 0 1 0 90.496L647.776 384 987.168 723.424a64 64 0 0 1 0 90.496l-45.248 45.248a64 64 0 0 1-90.496 0L512 519.776z"  horiz-adv-x="1024" />

    
    <glyph glyph-name="youhuiquan" unicode="&#59110;" d="M850.115048-62.902857a20.553143 20.553143 0 0 1 20.650666 20.431238V793.6a20.553143 20.553143 0 0 1-20.650666 20.431238H719.725714c-22.918095-88.185905-103.765333-153.35619-199.972571-153.35619-96.231619 0-177.054476 65.170286-199.996953 153.35619H189.366857a20.553143 20.553143 0 0 1-20.650667-20.431238v-836.071619c0-11.288381 9.264762-20.431238 20.650667-20.431238h660.72381z m0 938.276571c45.592381 0 82.578286-36.62019 82.578285-81.773714v-836.071619c0-45.153524-36.961524-81.773714-82.578285-81.773714h-660.72381c-45.641143 0-82.602667 36.62019-82.602667 81.773714V793.6C106.788571 838.753524 143.750095 875.373714 189.366857 875.373714h186.197333c-0.24381-3.388952-0.365714-6.777905-0.365714-10.24 0-79.018667 64.731429-143.11619 144.554667-143.11619 79.823238 0 144.530286 64.097524 144.530286 143.11619 0 3.462095-0.121905 6.851048-0.365715 10.24h186.197334zM917.211429 497.127619h-149.699048v-61.318095h149.699048zM703.853714 497.127619h-149.699047v-61.318095h149.699047zM490.496 497.127619h-149.699048v-61.318095h149.699048zM277.138286 497.127619h-149.699048v-61.318095h149.699048z"  horiz-adv-x="1024" />

    
    <glyph glyph-name="zhuanjifen" unicode="&#59111;" d="M512-128C229.218462-128 0 101.21846200000005 0 384S229.218462 896 512 896s512-229.218462 512-512-229.218462-512-512-512z m-4.962462 839.837538a600.812308 600.812308 0 0 0-322.875076-322.875076 600.812308 600.812308 0 0 0 322.875076-322.914462 600.812308 600.812308 0 0 0 322.914462 322.914462 600.812308 600.812308 0 0 0-322.914462 322.875076z"  horiz-adv-x="1024" />

    
    <glyph glyph-name="wodeyue" unicode="&#59112;" d="M235.589818 812.846545c0 38.097455 22.341818 63.418182 78.196364 77.73091 13.824 3.560727 28.439273 2.978909 47.173818-0.651637 6.749091-1.303273 13.800727-2.955636 23.668364-5.445818-0.861091 0.232727 19.362909-4.910545 25.367272-6.376727 36.677818-8.983273 65.629091-13.358545 98.839273-13.358546 32.302545 0 60.509091 4.375273 96.651636 13.405091 5.818182 1.442909 24.785455 6.376727 24.971637 6.423273a426.589091 426.589091 0 0 0 23.412363 5.469091C672.442182 893.672727 687.010909 894.347636 700.858182 890.88c57.809455-14.429091 81.221818-40.052364 81.221818-78.033455 0-61.44-23.970909-112.709818-67.025455-149.899636 164.142545-69.748364 251.112727-239.197091 251.112728-529.035636 0-77.032727-18.152727-131.025455-74.589091-175.685818-69.748364-55.226182-192.162909-83.828364-382.743273-83.828364-191.348364 0-313.320727 27.578182-382.580364 81.524364-56.785455 44.264727-74.728727 98.117818-74.728727 177.989818 0 291.188364 86.295273 461.358545 250.181818 530.385454-42.449455 37.236364-66.117818 88.087273-66.117818 148.549818z m130.397091-181.364363C194.629818 584.1454550000001 103.633455 432.151273 103.633455 133.91127300000005c0-65.419636 12.986182-104.424727 54.644363-136.866909 58.158545-45.312 169.728-70.539636 350.557091-70.539637 179.921455 0 291.746909 26.135273 350.417455 72.587637 41.611636 32.954182 54.807273 72.145455 54.807272 134.818909 0 296.797091-91.764364 448.232727-263.68 496.546909-22.807273 6.4-25.925818 37.422545-4.887272 48.244363 54.690909 28.113455 84.503273 73.728 84.503272 134.144 0 12.218182-5.725091 18.478545-41.774545 27.461819-9.634909 2.420364-9.099636 2.536727-70.097455-12.706909-39.912727-9.984-72.052364-14.964364-109.288727-14.964364-38.027636 0-70.842182 4.957091-111.220364 14.848-62.836364 15.36-61.346909 15.080727-70.888727 12.637091-33.978182-8.727273-39.028364-14.429091-39.028363-27.275637 0-59.322182 29.509818-104.820364 83.479272-133.189818 20.898909-11.008 17.570909-41.890909-5.189818-48.174545zM416.116364 225.97818199999995h49.640727v31.744H416.116364c-20.875636 0-31.325091 6.912-31.325091 20.712727 0 13.521455 10.449455 20.293818 31.325091 20.293818h27.997091l-65.931637 103.424a169.355636 169.355636 0 0 0-10.356363 17.640728 27.694545 27.694545 0 0 0-2.420364 11.682909c0 7.633455 2.327273 13.777455 6.935273 18.385454 4.654545 4.654545 10.635636 6.981818 17.966545 6.981818 7.493818 0 13.568-2.304 18.199273-6.842181 4.631273-4.561455 10.030545-11.915636 16.197818-22.062546l71.214545-111.569454 63.744 105.192727c2.327273 4.096 4.840727 8.401455 7.493819 12.893091 2.653091 4.468364 5.213091 8.308364 7.726545 11.450182a30.487273 30.487273 0 0 0 9.355636 7.842909c3.746909 2.048 8.192 3.072 13.358546 3.072 7.330909 0 13.335273-2.234182 17.966545-6.725819a21.992727 21.992727 0 0 0 6.935273-16.407272c0-5.166545-0.930909-9.867636-2.746182-14.126546a133.469091 133.469091 0 0 0-8.727272-16.081454l-63.488-104.750546h27.99709c20.712727 0 31.092364-6.749091 31.092364-20.293818 0-13.800727-10.356364-20.712727-31.092364-20.712727H525.730909v-31.767273h49.826909c20.712727 0 31.092364-6.888727 31.092364-20.712727 0-13.521455-10.356364-20.293818-31.092364-20.293818H525.730909v-17.640728c0-29.835636-9.937455-44.753455-29.789091-44.753454-20.130909 0-30.184727 14.894545-30.184727 44.753454v17.640728H416.116364c-20.875636 0-31.325091 6.749091-31.325091 20.293818 0 13.824 10.449455 20.712727 31.325091 20.712727z"  horiz-adv-x="1024" />

    
    <glyph glyph-name="wodeziliao" unicode="&#59113;" d="M674.769455 98.09454500000004h125.207272a25.367273 25.367273 0 0 1 0 50.781091h-125.207272a25.367273 25.367273 0 0 1 0-50.781091zM674.769455-10.030544999999961h183.924363a25.367273 25.367273 0 0 1 0 50.78109h-183.924363a25.367273 25.367273 0 0 1 0-50.78109zM674.769455-108.33454500000005H907.636364a25.367273 25.367273 0 1 1 0 50.78109H674.769455a25.367273 25.367273 0 0 1 0-50.78109zM535.691636 332.311273c-155.648 0-281.786182 126.184727-281.786181 281.832727C253.905455 769.815273 380.043636 896 535.691636 896c155.624727 0 281.762909-126.184727 281.762909-281.832727 0-155.671273-126.138182-281.856-281.762909-281.856z m0 50.781091c127.557818 0 231.005091 103.447273 231.005091 231.051636 0 127.627636-103.447273 231.098182-231.005091 231.098182-127.581091 0-231.028364-103.470545-231.028363-231.098182 0-127.604364 103.447273-231.051636 231.028363-231.051636zM879.197091 218.71709099999998a464.570182 464.570182 0 0 1-343.505455 151.226182C278.388364 369.943273 69.818182 161.27999999999997 69.818182-96.04654500000004a25.367273 25.367273 0 1 1 50.781091 0c0 229.306182 185.832727 415.185455 415.092363 415.185454a413.789091 413.789091 0 0 0 306.059637-134.725818 25.367273 25.367273 0 1 1 37.445818 34.304z"  horiz-adv-x="1024" />

    
    <glyph glyph-name="xiangyoujiantou" unicode="&#59114;" d="M256-110.93333299999995c-13.653333 0-27.306667 6.826667-37.546667 17.066666-20.48 20.48-17.066667 54.613333 3.413334 71.68l436.906666 395.946667-436.906666 416.426667c-20.48 20.48-20.48 51.2-3.413334 71.68 20.48 20.48 51.2 20.48 71.68 3.413333l518.826667-494.933333-518.826667-467.626667c-10.24-10.24-20.48-13.653333-34.133333-13.653333z"  horiz-adv-x="1024" />

    
    <glyph glyph-name="mingxi" unicode="&#59115;" d="M591.0016 896h925.2864v-394.6496H591.0016zM591.0016 275.8144h925.2864v-394.6496H591.0016zM11.0592 896h376.4224v-394.6496H11.0592zM11.0592 275.8144h376.4224v-394.6496H11.0592z"  horiz-adv-x="1536" />

    
    <glyph glyph-name="hebingxingzhuang" unicode="&#59116;" d="M483.007928 372.171421h-130.906421a26.17663 26.17663 0 0 1 0-52.353261h130.906421v-130.929689a26.17663 26.17663 0 0 1 52.35326 0v130.906421h130.906421a26.17663 26.17663 0 0 1 0 52.35326h-130.906421v130.929689a26.17663 26.17663 0 1 1-52.35326 0v-130.90642zM231.595935 815.05674c0 38.299319 22.477 63.754638 78.576427 78.134333 13.914333 3.58329 28.619783 2.978319 47.420421-0.674775 6.771022-1.303014 13.867797-2.955051 23.803282-5.444739-0.884188 0.232681 19.452145-4.956109 25.478587-6.445269 36.856696-9.004761 65.965109-13.425703 99.354855-13.425702 32.435754 0 60.799587 4.420942 97.121116 13.495507 5.817029 1.465891 24.896884 6.398732 25.059761 6.445268 9.772609 2.512957 16.822848 4.188261 23.547333 5.491275 18.661029 3.676362 33.296674 4.32787 47.211008 0.860921 58.100486-14.519304 81.671087-40.253841 81.671087-78.413551 0-61.75358-24.105768-113.292457-67.407732-150.661051 164.970942-70.083565 252.365986-240.359638 252.365985-531.653181 0-77.389754-18.265471-131.651-74.946601-176.535196-70.106833-55.494457-193.125362-84.253848-384.621957-84.253848-192.310978 0-314.887413 27.712326-384.482348 81.950304C64.670471-1.5843260000000328 46.637681 52.53731200000004 46.637681 132.789044 46.637681 425.432138 133.381217 596.429522 298.072942 665.815044 255.399217 703.206906 231.595935 754.326957 231.595935 815.080008z"  horiz-adv-x="1024" />

    
    <glyph glyph-name="hebingxingzhuang1" unicode="&#59117;" d="M231.601872 815.277917c0 38.301686 22.45512 63.758578 78.558015 78.139162 13.915193 3.583511 28.621552 2.978503 47.423352-0.674817 6.77144-1.303095 13.868654-2.955233 23.804754-5.445075-0.884243 0.232696 19.453347-4.956415 25.480161-6.445667 36.858974-9.005317 65.969186-13.426533 99.360997-13.426532 32.437758 0 60.803345 4.421215 97.127119 13.496341 5.817389 1.465982 24.898423 6.399127 25.061309 6.445666 9.773213 2.513112 16.823888 4.18852 23.548789 5.491615 18.662182 3.67659 33.298732 4.328137 47.213926 0.860974 58.104077-14.520202 81.676135-40.256329 81.676135-78.418398 0-61.757397-24.107258-113.299459-67.411899-150.670363 164.981139-70.087897 252.381584-240.374494 252.381585-531.686043 0-77.394537-18.2666-131.659137-74.951234-176.546107-70.111167-55.497887-193.137299-84.259056-384.64573-84.259056-192.322865 0-314.906876 27.714039-384.506113 81.95537C64.642821-1.4368950000000495 46.608917 52.68808799999999 46.608917 132.94478000000004 46.608917 425.605963 133.357815 596.613916 298.059719 666.003727 255.383357 703.3978999999999 231.578603 754.521111 231.578603 815.277917z m197.628324-570.220425c-20.965868 0-31.460437-6.957597-31.460437-20.84952 0-13.58942 10.471299-20.384129 31.460437-20.38413h49.866654v-17.7314c0-29.971186 10.122256-44.980048 30.366769-44.980048 19.942008 0 29.901377 15.008862 29.901377 44.980048v17.7314h50.07608c20.849521 0 31.251011 6.79471 31.251011 20.38413 0 13.891924-10.401491 20.849521-31.251011 20.84952h-50.07608v31.902559h50.07608c20.849521 0 31.251011 6.934327 31.251011 20.826251 0 13.58942-10.401491 20.384129-31.251011 20.384129H561.331455l63.828387 105.271463c3.979094 6.515475 6.911058 11.890742 8.749352 16.17234 1.861564 4.281598 2.769077 9.005317 2.769077 14.194428a22.106076 22.106076 0 0 1-6.980866 16.521384c-4.653911 4.491024-10.680725 6.748171-18.057174 6.748171a27.458074 27.458074 0 0 1-13.403263-3.118121 30.622733 30.622733 0 0 1-9.42417-7.865109 103.433168 103.433168 0 0 1-7.748761-11.518429c-2.675999-4.514294-5.189111-8.842431-7.539336-12.961142L509.440349 335.901832l-71.577149 112.135981c-6.212971 10.192065-11.634777 17.591783-16.288687 22.152616-4.653911 4.584102-10.750534 6.887788-18.28987 6.887788-7.399718 0-13.403263-2.326955-18.057174-6.980867-4.653911-4.653911-6.980866-10.820343-6.980866-18.522565 0-4.281598 0.814434-8.190883 2.420033-11.727855 1.628869-3.560242 5.119302-9.470709 10.424761-17.7314l66.27169-103.945099h-28.156161c-20.965868 0-31.460437-6.79471-31.460437-20.384129 0-13.891924 10.471299-20.826251 31.460437-20.826251h49.866655v-31.902559h-49.866655z"  horiz-adv-x="1024" />

    


  </font>
</defs>
</svg>
